<svg xmlns="http://www.w3.org/2000/svg" version="1.1" xmlns:xlink="http://www.w3.org/1999/xlink" xmlns:svgjs="http://svgjs.dev/svgjs" width="1500" height="937" viewBox="0 0 1500 937"><g transform="matrix(1,0,0,1,0,0)"><svg viewBox="0 0 512 320" data-background-color="#000000" preserveAspectRatio="xMidYMid meet" height="937" width="1500" xmlns="http://www.w3.org/2000/svg" xmlns:xlink="http://www.w3.org/1999/xlink"><g id="tight-bounds" transform="matrix(1,0,0,1,0,0)"><svg viewBox="0 0 512 320" height="320" width="512"><rect width="512" height="320" fill="url(#9314c1eb-d60d-47b0-8bb7-5c0850753ea9)" mask="url(#3ebc2aa1-aa5a-452d-bbd1-8130f52224ce)" data-fill-palette-color="tertiary"></rect><g><svg></svg></g><g><svg viewBox="0 0 512 320" height="320" width="512"><g><path d="M96 160c0-88.366 71.634-160 160-160 88.366 0 160 71.634 160 160 0 88.366-71.634 160-160 160-88.366 0-160-71.634-160-160zM256 312.526c84.238 0 152.526-68.288 152.526-152.526 0-84.238-68.288-152.526-152.526-152.526-84.238 0-152.526 68.288-152.526 152.526 0 84.238 68.288 152.526 152.526 152.526z" fill="url(#9314c1eb-d60d-47b0-8bb7-5c0850753ea9)" fill-rule="nonzero" stroke="none" stroke-width="1" stroke-linecap="butt" stroke-linejoin="miter" stroke-miterlimit="10" stroke-dasharray="" stroke-dashoffset="0" font-family="none" font-weight="none" font-size="none" text-anchor="none" style="mix-blend-mode: normal" data-fill-palette-color="tertiary"></path></g><g transform="matrix(1,0,0,1,130.9299637886343,80)"><svg viewBox="0 0 250.1400724227314 160" height="160" width="250.1400724227314"><g><svg viewBox="0 0 256 163.74825354163355" height="160" width="250.1400724227314"><g transform="matrix(1,0,0,1,0,121.33663953650972)"><svg viewBox="0 0 256 42.41161400512382" height="42.41161400512382" width="256"><g id="textblocktransform"><svg viewBox="0 0 256 42.41161400512382" height="42.41161400512382" width="256" id="textblock"><g><svg viewBox="0 0 256 42.41161400512382" height="42.41161400512382" width="256"><g transform="matrix(1,0,0,1,0,0)"><svg width="256" viewBox="3 -37.65 292.72 48.5" height="42.41161400512382" data-palette-color="url(#6b0ba99e-4bbe-49a6-ade1-d434ad69135e)"></svg></g></svg></g></svg></g></svg></g><g transform="matrix(1,0,0,1,77.34404441961875,0)"><svg viewBox="0 0 101.31191116076249 101.31191116076249" height="101.31191116076249" width="101.31191116076249"><g><svg></svg></g><g id="icon-0"><svg viewBox="0 0 101.31191116076249 101.31191116076249" height="101.31191116076249" width="101.31191116076249"><g></g><g transform="matrix(1,0,0,1,26.639602979559935,23.134771018055925)"><svg viewBox="0 0 48.03270520164262 55.04236912465064" height="55.04236912465064" width="48.03270520164262"><g><svg xmlns:inkscape="http://www.inkscape.org/namespaces/inkscape" xmlns:sodipodi="http://sodipodi.sourceforge.net/DTD/sodipodi-0.dtd" xmlns:cc="http://creativecommons.org/ns#" xmlns:svg="http://www.w3.org/2000/svg" xmlns:rdf="http://www.w3.org/1999/02/22-rdf-syntax-ns#" xmlns:dc="http://purl.org/dc/elements/1.1/" xmlns="http://www.w3.org/2000/svg" xmlns:xlink="http://www.w3.org/1999/xlink" version="1.1" x="0" y="0" viewBox="9.589000000000002 5.981999999999999 46.411 53.184" enable-background="new 0 0 64 64" xml:space="preserve" height="55.04236912465064" width="48.03270520164262" class="icon-cg-0" data-fill-palette-color="accent" id="cg-0"></svg></g></svg></g></svg></g></svg></g><g></g></svg></g></svg></g></svg></g><defs></defs><mask id="ec476b61-56fa-4ef3-aba8-616841377d22"><g id="SvgjsG1029"><svg viewBox="0 0 512 320" height="320" width="512"><g><svg></svg></g><g><svg viewBox="0 0 512 320" height="320" width="512"><g><path d="M96 160c0-88.366 71.634-160 160-160 88.366 0 160 71.634 160 160 0 88.366-71.634 160-160 160-88.366 0-160-71.634-160-160zM256 312.526c84.238 0 152.526-68.288 152.526-152.526 0-84.238-68.288-152.526-152.526-152.526-84.238 0-152.526 68.288-152.526 152.526 0 84.238 68.288 152.526 152.526 152.526z" fill="black" fill-rule="nonzero" stroke="none" stroke-width="1" stroke-linecap="butt" stroke-linejoin="miter" stroke-miterlimit="10" stroke-dasharray="" stroke-dashoffset="0" font-family="none" font-weight="none" font-size="none" text-anchor="none" style="mix-blend-mode: normal"></path></g><g transform="matrix(1,0,0,1,130.9299637886343,80)"><svg viewBox="0 0 250.1400724227314 160" height="160" width="250.1400724227314"><g><svg viewBox="0 0 256 163.74825354163355" height="160" width="250.1400724227314"><g transform="matrix(1,0,0,1,0,121.33663953650972)"><svg viewBox="0 0 256 42.41161400512382" height="42.41161400512382" width="256"><g id="SvgjsG1028"><svg viewBox="0 0 256 42.41161400512382" height="42.41161400512382" width="256" id="SvgjsSvg1027"><g><svg viewBox="0 0 256 42.41161400512382" height="42.41161400512382" width="256"><g transform="matrix(1,0,0,1,0,0)"><svg width="256" viewBox="3 -37.65 292.72 48.5" height="42.41161400512382" data-palette-color="url(#6b0ba99e-4bbe-49a6-ade1-d434ad69135e)"><path d="M3-34.55L20.15-34.55 19.5-29.8 9.35-29.8 9.35-19.9 18.2-19.9 18.2-15.2 9.35-15.2 9.35-4.8 20.15-4.8 20.15 0 3 0 3-34.55ZM31.85-27.15Q36.55-27.15 39.8-24.05L39.8-24.05 37.45-20.7Q36.05-21.7 34.8-22.2 33.55-22.7 32.25-22.7L32.25-22.7Q30.8-22.7 29.97-21.93 29.15-21.15 29.15-19.8L29.15-19.8Q29.15-18.45 30.07-17.63 31-16.8 33.8-15.7L33.8-15.7Q37.25-14.35 38.9-12.5 40.55-10.65 40.55-7.55L40.55-7.55Q40.55-3.7 37.85-1.48 35.15 0.75 31 0.75L31 0.75Q28.3 0.75 26.02-0.23 23.75-1.2 22.05-2.95L22.05-2.95 25.05-6.25Q27.85-3.8 30.75-3.8L30.75-3.8Q32.4-3.8 33.35-4.67 34.3-5.55 34.3-7.1L34.3-7.1Q34.3-8.25 33.9-8.97 33.5-9.7 32.5-10.33 31.5-10.95 29.5-11.7L29.5-11.7Q26.05-13.05 24.57-14.85 23.1-16.65 23.1-19.45L23.1-19.45Q23.1-22.8 25.47-24.98 27.85-27.15 31.85-27.15L31.85-27.15ZM56.75-27.15Q59.59-27.15 61.25-25.1 62.9-23.05 62.9-19.6L62.9-19.6 62.9 0 56.75 0 56.75-18.9Q56.75-20.8 56.22-21.63 55.7-22.45 54.7-22.45L54.7-22.45Q52.59-22.45 50.55-18.5L50.55-18.5 50.55 0 44.4 0 44.4-37 50.55-37.65 50.55-23.3Q51.8-25.25 53.27-26.2 54.75-27.15 56.75-27.15L56.75-27.15ZM77.84-27.15Q82.84-27.15 85.62-23.65 88.39-20.15 88.39-13.25L88.39-13.25Q88.39-6.65 85.59-2.95 82.79 0.75 77.84 0.75L77.84 0.75Q72.89 0.75 70.09-2.88 67.29-6.5 67.29-13.25L67.29-13.25Q67.29-19.95 70.09-23.55 72.89-27.15 77.84-27.15L77.84-27.15ZM77.84-22.5Q75.69-22.5 74.69-20.38 73.69-18.25 73.69-13.25L73.69-13.25Q73.69-8.2 74.69-6.08 75.69-3.95 77.84-3.95L77.84-3.95Q79.99-3.95 80.99-6.08 81.99-8.2 81.99-13.25L81.99-13.25Q81.99-18.3 80.99-20.4 79.99-22.5 77.84-22.5L77.84-22.5ZM105.14-27.15Q109.04-27.15 111.04-23.58 113.04-20 113.04-13.3L113.04-13.3Q113.04-6.8 110.77-3.03 108.49 0.75 104.44 0.75L104.44 0.75Q101.24 0.75 99.09-2.1L99.09-2.1 99.09 10.15 92.94 10.85 92.94-26.45 98.39-26.45 98.64-23.25Q99.94-25.25 101.54-26.2 103.14-27.15 105.14-27.15L105.14-27.15ZM102.79-3.95Q104.69-3.95 105.69-6.13 106.69-8.3 106.69-13.25L106.69-13.25Q106.69-18.45 105.84-20.5 104.99-22.55 103.19-22.55L103.19-22.55Q100.89-22.55 99.09-19.25L99.09-19.25 99.09-6.45Q100.69-3.95 102.79-3.95L102.79-3.95ZM139.09-35.25Q145.19-35.25 148.49-30.8 151.79-26.35 151.79-17.3L151.79-17.3Q151.79-8.35 148.49-3.8 145.19 0.75 139.09 0.75L139.09 0.75Q133.04 0.75 129.71-3.75 126.39-8.25 126.39-17.25L126.39-17.25Q126.39-26.15 129.71-30.7 133.04-35.25 139.09-35.25L139.09-35.25ZM139.09-30.45Q136.04-30.45 134.56-27.4 133.09-24.35 133.09-17.25L133.09-17.25Q133.09-10.1 134.59-7.13 136.09-4.15 139.09-4.15L139.09-4.15Q142.19-4.15 143.66-7.1 145.14-10.05 145.14-17.3L145.14-17.3Q145.14-24.4 143.64-27.43 142.14-30.45 139.09-30.45L139.09-30.45ZM168.73-27.15Q171.58-27.15 173.23-25.1 174.88-23.05 174.88-19.6L174.88-19.6 174.88 0 168.73 0 168.73-18.9Q168.73-20.8 168.21-21.63 167.68-22.45 166.68-22.45L166.68-22.45Q164.58-22.45 162.53-18.5L162.53-18.5 162.53 0 156.38 0 156.38-26.45 161.73-26.45 162.18-23Q163.53-25.1 165.06-26.13 166.58-27.15 168.73-27.15L168.73-27.15ZM202.68-35.25Q205.53-35.25 207.78-34.23 210.03-33.2 212.03-31.25L212.03-31.25 208.83-27.95Q207.28-29.3 205.93-29.88 204.58-30.45 202.88-30.45L202.88-30.45Q199.58-30.45 197.7-27.5 195.83-24.55 195.83-17.3L195.83-17.3Q195.83-12.2 196.5-9.33 197.18-6.45 198.5-5.3 199.83-4.15 201.98-4.15L201.98-4.15Q204.23-4.15 206.08-5.4L206.08-5.4 206.08-14.75 202.18-14.75 201.53-19.5 212.13-19.5 212.13-2.6Q209.98-1.05 207.35-0.18 204.73 0.7 202.03 0.7L202.03 0.7Q195.58 0.7 192.38-3.68 189.18-8.05 189.18-17.3L189.18-17.3Q189.18-23.3 190.95-27.33 192.73-31.35 195.78-33.3 198.83-35.25 202.68-35.25L202.68-35.25ZM236.03-13.85Q236.03-13.4 235.88-11.3L235.88-11.3 222.23-11.3Q222.43-7.2 223.65-5.58 224.88-3.95 227.13-3.95L227.13-3.95Q228.68-3.95 229.93-4.48 231.18-5 232.63-6.15L232.63-6.15 235.18-2.65Q231.68 0.75 226.78 0.75L226.78 0.75Q221.58 0.75 218.8-2.85 216.03-6.45 216.03-13L216.03-13Q216.03-19.55 218.68-23.35 221.33-27.15 226.18-27.15L226.18-27.15Q230.83-27.15 233.43-23.78 236.03-20.4 236.03-13.85L236.03-13.85ZM230.03-15.3L230.03-15.65Q230.03-19.4 229.13-21.13 228.23-22.85 226.23-22.85L226.23-22.85Q224.38-22.85 223.4-21.18 222.43-19.5 222.23-15.3L222.23-15.3 230.03-15.3ZM252.67-27.15Q255.52-27.15 257.17-25.1 258.82-23.05 258.82-19.6L258.82-19.6 258.82 0 252.67 0 252.67-18.9Q252.67-20.8 252.15-21.63 251.62-22.45 250.62-22.45L250.62-22.45Q248.52-22.45 246.47-18.5L246.47-18.5 246.47 0 240.32 0 240.32-26.45 245.67-26.45 246.12-23Q247.47-25.1 249-26.13 250.52-27.15 252.67-27.15L252.67-27.15ZM286.47 0L280.02 0 278.32-8.1 269.42-8.1 267.77 0 261.42 0 270.12-34.55 277.82-34.55 286.47 0ZM273.87-29.7L270.42-12.9 277.37-12.9 273.87-29.7ZM289.37-34.55L295.72-34.55 295.72 0 289.37 0 289.37-34.55Z" opacity="1" transform="matrix(1,0,0,1,0,0)" fill="white" class="wordmark-text-0" id="SvgjsPath1026"></path></svg></g></svg></g></svg></g></svg></g><g transform="matrix(1,0,0,1,77.34404441961875,0)"><svg viewBox="0 0 101.31191116076249 101.31191116076249" height="101.31191116076249" width="101.31191116076249"><g><svg></svg></g><g id="SvgjsG1025"><svg viewBox="0 0 101.31191116076249 101.31191116076249" height="101.31191116076249" width="101.31191116076249"><g><path d="M0 50.656c0-27.977 22.679-50.656 50.656-50.656 27.977 0 50.656 22.679 50.656 50.656 0 27.977-22.679 50.656-50.656 50.656-27.977 0-50.656-22.679-50.656-50.656zM50.656 97.487c25.864 0 46.831-20.967 46.831-46.831 0-25.864-20.967-46.831-46.831-46.831-25.864 0-46.831 20.967-46.831 46.831 0 25.864 20.967 46.831 46.831 46.831z" fill="black" stroke="transparent"></path></g><g transform="matrix(1,0,0,1,26.639602979559935,23.134771018055925)"><svg viewBox="0 0 48.03270520164262 55.04236912465064" height="55.04236912465064" width="48.03270520164262"><g><svg xmlns:inkscape="http://www.inkscape.org/namespaces/inkscape" xmlns:sodipodi="http://sodipodi.sourceforge.net/DTD/sodipodi-0.dtd" xmlns:cc="http://creativecommons.org/ns#" xmlns:svg="http://www.w3.org/2000/svg" xmlns:rdf="http://www.w3.org/1999/02/22-rdf-syntax-ns#" xmlns:dc="http://purl.org/dc/elements/1.1/" xmlns="http://www.w3.org/2000/svg" xmlns:xlink="http://www.w3.org/1999/xlink" version="1.1" x="0" y="0" viewBox="9.589000000000002 5.981999999999999 46.411 53.184" enable-background="new 0 0 64 64" xml:space="preserve" height="55.04236912465064" width="48.03270520164262" class="icon-cg-0" data-fill-palette-color="accent" id="SvgjsSvg1024"><g fill="black"><path fill="black" d="M38.902 15.585c-1.664 0-3.012 1.349-3.012 3.012 0 1.663 1.348 3.012 3.012 3.012 1.662 0 3.012-1.349 3.012-3.012C41.914 16.934 40.564 15.585 38.902 15.585zM27.021 15.585c-1.665 0-3.012 1.349-3.012 3.012 0 1.663 1.348 3.012 3.012 3.012 1.663 0 3.012-1.349 3.012-3.012C30.033 16.934 28.684 15.585 27.021 15.585zM21.081 46.271c0 1.664 1.349 3.012 3.012 3.012H41.83c1.662 0 3.012-1.348 3.012-3.012V33.088H21.081V46.271zM14.632 14.788c-0.587-0.591-0.88-1.363-0.88-2.131 0-0.771 0.293-1.544 0.88-2.131 0.591-0.587 1.36-0.88 2.131-0.88 0.772 0 1.544 0.293 2.131 0.88l-0.704 0.52c4.077-3.17 9.202-5.064 14.77-5.064 5.568 0 10.688 1.893 14.77 5.064l-0.701-0.518c0.588-0.588 1.357-0.881 2.131-0.881 0.77 0 1.543 0.293 2.129 0.881 0.586 0.591 0.879 1.363 0.879 2.131 0 0.772-0.291 1.544-0.879 2.131l0.703 0.518c-6.287 6.287-7.15 14.769-7.15 14.769H21.081c-0.5 0 0.497-7.123-7.15-14.769L14.632 14.788z"></path></g><path fill="black" d="M16.917 35.35c0 2.023-1.64 3.664-3.664 3.664l0 0c-2.024 0-3.664-1.641-3.664-3.664l0 0c0-2.023 1.64-3.664 3.664-3.664l0 0C15.276 31.686 16.917 33.326 16.917 35.35L16.917 35.35z"></path><path fill="black" d="M56 26.8c0 2.023-1.641 3.665-3.664 3.665l0 0c-2.023 0-3.664-1.642-3.664-3.665l0 0c0-2.022 1.641-3.664 3.664-3.664l0 0C54.359 23.136 56 24.777 56 26.8L56 26.8z"></path><path fill="black" d="M39.512 59.166c-2.023 0-3.664-1.641-3.664-3.664l0 0c0-2.023 1.641-3.664 3.664-3.664l0 0c2.023 0 3.664 1.641 3.664 3.664l0 0C43.176 57.525 41.535 59.166 39.512 59.166L39.512 59.166z"></path><path fill="black" d="M26.077 59.166c-2.024 0-3.664-1.641-3.664-3.664l0 0c0-2.023 1.64-3.664 3.664-3.664l0 0c2.024 0 3.664 1.641 3.664 3.664l0 0C29.741 57.525 28.101 59.166 26.077 59.166L26.077 59.166z"></path></svg></g></svg></g></svg></g></svg></g><g></g></svg></g></svg></g></svg></g><defs><mask></mask></defs></svg><rect width="512" height="320" fill="black" stroke="none" visibility="hidden"></rect></g></mask><linearGradient x1="0" x2="1" y1="0.578" y2="0.595" id="6b0ba99e-4bbe-49a6-ade1-d434ad69135e"><stop stop-color="#6ee2f5" offset="0"></stop><stop stop-color="#6454f0" offset="1"></stop></linearGradient><rect width="512" height="320" fill="url(#6b0ba99e-4bbe-49a6-ade1-d434ad69135e)" mask="url(#ec476b61-56fa-4ef3-aba8-616841377d22)" data-fill-palette-color="primary"></rect><mask id="bcdd8c3a-6739-401e-8641-958c31f71414"><g id="SvgjsG1052"><svg viewBox="0 0 512 320" height="320" width="512"><g><svg></svg></g><g><svg viewBox="0 0 512 320" height="320" width="512"><g><path d="M96 160c0-88.366 71.634-160 160-160 88.366 0 160 71.634 160 160 0 88.366-71.634 160-160 160-88.366 0-160-71.634-160-160zM256 312.526c84.238 0 152.526-68.288 152.526-152.526 0-84.238-68.288-152.526-152.526-152.526-84.238 0-152.526 68.288-152.526 152.526 0 84.238 68.288 152.526 152.526 152.526z" fill="black" fill-rule="nonzero" stroke="none" stroke-width="1" stroke-linecap="butt" stroke-linejoin="miter" stroke-miterlimit="10" stroke-dasharray="" stroke-dashoffset="0" font-family="none" font-weight="none" font-size="none" text-anchor="none" style="mix-blend-mode: normal"></path></g><g transform="matrix(1,0,0,1,130.9299637886343,80)"><svg viewBox="0 0 250.1400724227314 160" height="160" width="250.1400724227314"><g><svg viewBox="0 0 256 163.74825354163355" height="160" width="250.1400724227314"><g transform="matrix(1,0,0,1,0,121.33663953650972)"><svg viewBox="0 0 256 42.41161400512382" height="42.41161400512382" width="256"><g id="SvgjsG1051"><svg viewBox="0 0 256 42.41161400512382" height="42.41161400512382" width="256" id="SvgjsSvg1050"><g><svg viewBox="0 0 256 42.41161400512382" height="42.41161400512382" width="256"><g transform="matrix(1,0,0,1,0,0)"><svg width="256" viewBox="3 -37.65 292.72 48.5" height="42.41161400512382" data-palette-color="url(#6b0ba99e-4bbe-49a6-ade1-d434ad69135e)"></svg></g></svg></g></svg></g></svg></g><g transform="matrix(1,0,0,1,77.34404441961875,0)"><svg viewBox="0 0 101.31191116076249 101.31191116076249" height="101.31191116076249" width="101.31191116076249"><g><svg></svg></g><g id="SvgjsG1049"><svg viewBox="0 0 101.31191116076249 101.31191116076249" height="101.31191116076249" width="101.31191116076249"><g><path d="M0 50.656c0-27.977 22.679-50.656 50.656-50.656 27.977 0 50.656 22.679 50.656 50.656 0 27.977-22.679 50.656-50.656 50.656-27.977 0-50.656-22.679-50.656-50.656zM50.656 97.487c25.864 0 46.831-20.967 46.831-46.831 0-25.864-20.967-46.831-46.831-46.831-25.864 0-46.831 20.967-46.831 46.831 0 25.864 20.967 46.831 46.831 46.831z" fill="white" stroke="transparent"></path></g><g transform="matrix(1,0,0,1,26.639602979559935,23.134771018055925)"><svg viewBox="0 0 48.03270520164262 55.04236912465064" height="55.04236912465064" width="48.03270520164262"><g><svg xmlns:inkscape="http://www.inkscape.org/namespaces/inkscape" xmlns:sodipodi="http://sodipodi.sourceforge.net/DTD/sodipodi-0.dtd" xmlns:cc="http://creativecommons.org/ns#" xmlns:svg="http://www.w3.org/2000/svg" xmlns:rdf="http://www.w3.org/1999/02/22-rdf-syntax-ns#" xmlns:dc="http://purl.org/dc/elements/1.1/" xmlns="http://www.w3.org/2000/svg" xmlns:xlink="http://www.w3.org/1999/xlink" version="1.1" x="0" y="0" viewBox="9.589000000000002 5.981999999999999 46.411 53.184" enable-background="new 0 0 64 64" xml:space="preserve" height="55.04236912465064" width="48.03270520164262" class="icon-cg-0" data-fill-palette-color="accent" id="SvgjsSvg1048"><g fill="white"><path fill="white" d="M38.902 15.585c-1.664 0-3.012 1.349-3.012 3.012 0 1.663 1.348 3.012 3.012 3.012 1.662 0 3.012-1.349 3.012-3.012C41.914 16.934 40.564 15.585 38.902 15.585zM27.021 15.585c-1.665 0-3.012 1.349-3.012 3.012 0 1.663 1.348 3.012 3.012 3.012 1.663 0 3.012-1.349 3.012-3.012C30.033 16.934 28.684 15.585 27.021 15.585zM21.081 46.271c0 1.664 1.349 3.012 3.012 3.012H41.83c1.662 0 3.012-1.348 3.012-3.012V33.088H21.081V46.271zM14.632 14.788c-0.587-0.591-0.88-1.363-0.88-2.131 0-0.771 0.293-1.544 0.88-2.131 0.591-0.587 1.36-0.88 2.131-0.88 0.772 0 1.544 0.293 2.131 0.88l-0.704 0.52c4.077-3.17 9.202-5.064 14.77-5.064 5.568 0 10.688 1.893 14.77 5.064l-0.701-0.518c0.588-0.588 1.357-0.881 2.131-0.881 0.77 0 1.543 0.293 2.129 0.881 0.586 0.591 0.879 1.363 0.879 2.131 0 0.772-0.291 1.544-0.879 2.131l0.703 0.518c-6.287 6.287-7.15 14.769-7.15 14.769H21.081c-0.5 0 0.497-7.123-7.15-14.769L14.632 14.788z"></path></g><path fill="white" d="M16.917 35.35c0 2.023-1.64 3.664-3.664 3.664l0 0c-2.024 0-3.664-1.641-3.664-3.664l0 0c0-2.023 1.64-3.664 3.664-3.664l0 0C15.276 31.686 16.917 33.326 16.917 35.35L16.917 35.35z"></path><path fill="white" d="M56 26.8c0 2.023-1.641 3.665-3.664 3.665l0 0c-2.023 0-3.664-1.642-3.664-3.665l0 0c0-2.022 1.641-3.664 3.664-3.664l0 0C54.359 23.136 56 24.777 56 26.8L56 26.8z"></path><path fill="white" d="M39.512 59.166c-2.023 0-3.664-1.641-3.664-3.664l0 0c0-2.023 1.641-3.664 3.664-3.664l0 0c2.023 0 3.664 1.641 3.664 3.664l0 0C43.176 57.525 41.535 59.166 39.512 59.166L39.512 59.166z"></path><path fill="white" d="M26.077 59.166c-2.024 0-3.664-1.641-3.664-3.664l0 0c0-2.023 1.64-3.664 3.664-3.664l0 0c2.024 0 3.664 1.641 3.664 3.664l0 0C29.741 57.525 28.101 59.166 26.077 59.166L26.077 59.166z"></path></svg></g></svg></g></svg></g></svg></g><g></g></svg></g></svg></g></svg></g><defs><mask></mask></defs><mask><g id="SvgjsG1047"><svg viewBox="0 0 512 320" height="320" width="512"><g><svg></svg></g><g><svg viewBox="0 0 512 320" height="320" width="512"><g><path d="M96 160c0-88.366 71.634-160 160-160 88.366 0 160 71.634 160 160 0 88.366-71.634 160-160 160-88.366 0-160-71.634-160-160zM256 312.526c84.238 0 152.526-68.288 152.526-152.526 0-84.238-68.288-152.526-152.526-152.526-84.238 0-152.526 68.288-152.526 152.526 0 84.238 68.288 152.526 152.526 152.526z" fill="black" fill-rule="nonzero" stroke="none" stroke-width="1" stroke-linecap="butt" stroke-linejoin="miter" stroke-miterlimit="10" stroke-dasharray="" stroke-dashoffset="0" font-family="none" font-weight="none" font-size="none" text-anchor="none" style="mix-blend-mode: normal"></path></g><g transform="matrix(1,0,0,1,130.9299637886343,80)"><svg viewBox="0 0 250.1400724227314 160" height="160" width="250.1400724227314"><g><svg viewBox="0 0 256 163.74825354163355" height="160" width="250.1400724227314"><g transform="matrix(1,0,0,1,0,121.33663953650972)"><svg viewBox="0 0 256 42.41161400512382" height="42.41161400512382" width="256"><g id="SvgjsG1046"><svg viewBox="0 0 256 42.41161400512382" height="42.41161400512382" width="256" id="SvgjsSvg1045"><g><svg viewBox="0 0 256 42.41161400512382" height="42.41161400512382" width="256"><g transform="matrix(1,0,0,1,0,0)"><svg width="256" viewBox="3 -37.65 292.72 48.5" height="42.41161400512382" data-palette-color="url(#6b0ba99e-4bbe-49a6-ade1-d434ad69135e)"><path d="M3-34.55L20.15-34.55 19.5-29.8 9.35-29.8 9.35-19.9 18.2-19.9 18.2-15.2 9.35-15.2 9.35-4.8 20.15-4.8 20.15 0 3 0 3-34.55ZM31.85-27.15Q36.55-27.15 39.8-24.05L39.8-24.05 37.45-20.7Q36.05-21.7 34.8-22.2 33.55-22.7 32.25-22.7L32.25-22.7Q30.8-22.7 29.97-21.93 29.15-21.15 29.15-19.8L29.15-19.8Q29.15-18.45 30.07-17.63 31-16.8 33.8-15.7L33.8-15.7Q37.25-14.35 38.9-12.5 40.55-10.65 40.55-7.55L40.55-7.55Q40.55-3.7 37.85-1.48 35.15 0.75 31 0.75L31 0.75Q28.3 0.75 26.02-0.23 23.75-1.2 22.05-2.95L22.05-2.95 25.05-6.25Q27.85-3.8 30.75-3.8L30.75-3.8Q32.4-3.8 33.35-4.67 34.3-5.55 34.3-7.1L34.3-7.1Q34.3-8.25 33.9-8.97 33.5-9.7 32.5-10.33 31.5-10.95 29.5-11.7L29.5-11.7Q26.05-13.05 24.57-14.85 23.1-16.65 23.1-19.45L23.1-19.45Q23.1-22.8 25.47-24.98 27.85-27.15 31.85-27.15L31.85-27.15ZM56.75-27.15Q59.59-27.15 61.25-25.1 62.9-23.05 62.9-19.6L62.9-19.6 62.9 0 56.75 0 56.75-18.9Q56.75-20.8 56.22-21.63 55.7-22.45 54.7-22.45L54.7-22.45Q52.59-22.45 50.55-18.5L50.55-18.5 50.55 0 44.4 0 44.4-37 50.55-37.65 50.55-23.3Q51.8-25.25 53.27-26.2 54.75-27.15 56.75-27.15L56.75-27.15ZM77.84-27.15Q82.84-27.15 85.62-23.65 88.39-20.15 88.39-13.25L88.39-13.25Q88.39-6.65 85.59-2.95 82.79 0.75 77.84 0.75L77.84 0.75Q72.89 0.75 70.09-2.88 67.29-6.5 67.29-13.25L67.29-13.25Q67.29-19.95 70.09-23.55 72.89-27.15 77.84-27.15L77.84-27.15ZM77.84-22.5Q75.69-22.5 74.69-20.38 73.69-18.25 73.69-13.25L73.69-13.25Q73.69-8.2 74.69-6.08 75.69-3.95 77.84-3.95L77.84-3.95Q79.99-3.95 80.99-6.08 81.99-8.2 81.99-13.25L81.99-13.25Q81.99-18.3 80.99-20.4 79.99-22.5 77.84-22.5L77.84-22.5ZM105.14-27.15Q109.04-27.15 111.04-23.58 113.04-20 113.04-13.3L113.04-13.3Q113.04-6.8 110.77-3.03 108.49 0.75 104.44 0.75L104.44 0.75Q101.24 0.75 99.09-2.1L99.09-2.1 99.09 10.15 92.94 10.85 92.94-26.45 98.39-26.45 98.64-23.25Q99.94-25.25 101.54-26.2 103.14-27.15 105.14-27.15L105.14-27.15ZM102.79-3.95Q104.69-3.95 105.69-6.13 106.69-8.3 106.69-13.25L106.69-13.25Q106.69-18.45 105.84-20.5 104.99-22.55 103.19-22.55L103.19-22.55Q100.89-22.55 99.09-19.25L99.09-19.25 99.09-6.45Q100.69-3.95 102.79-3.95L102.79-3.95ZM139.09-35.25Q145.19-35.25 148.49-30.8 151.79-26.35 151.79-17.3L151.79-17.3Q151.79-8.35 148.49-3.8 145.19 0.75 139.09 0.75L139.09 0.75Q133.04 0.75 129.71-3.75 126.39-8.25 126.39-17.25L126.39-17.25Q126.39-26.15 129.71-30.7 133.04-35.25 139.09-35.25L139.09-35.25ZM139.09-30.45Q136.04-30.45 134.56-27.4 133.09-24.35 133.09-17.25L133.09-17.25Q133.09-10.1 134.59-7.13 136.09-4.15 139.09-4.15L139.09-4.15Q142.19-4.15 143.66-7.1 145.14-10.05 145.14-17.3L145.14-17.3Q145.14-24.4 143.64-27.43 142.14-30.45 139.09-30.45L139.09-30.45ZM168.73-27.15Q171.58-27.15 173.23-25.1 174.88-23.05 174.88-19.6L174.88-19.6 174.88 0 168.73 0 168.73-18.9Q168.73-20.8 168.21-21.63 167.68-22.45 166.68-22.45L166.68-22.45Q164.58-22.45 162.53-18.5L162.53-18.5 162.53 0 156.38 0 156.38-26.45 161.73-26.45 162.18-23Q163.53-25.1 165.06-26.13 166.58-27.15 168.73-27.15L168.73-27.15ZM202.68-35.25Q205.53-35.25 207.78-34.23 210.03-33.2 212.03-31.25L212.03-31.25 208.83-27.95Q207.28-29.3 205.93-29.88 204.58-30.45 202.88-30.45L202.88-30.45Q199.58-30.45 197.7-27.5 195.83-24.55 195.83-17.3L195.83-17.3Q195.83-12.2 196.5-9.33 197.18-6.45 198.5-5.3 199.83-4.15 201.98-4.15L201.98-4.15Q204.23-4.15 206.08-5.4L206.08-5.4 206.08-14.75 202.18-14.75 201.53-19.5 212.13-19.5 212.13-2.6Q209.98-1.05 207.35-0.18 204.73 0.7 202.03 0.7L202.03 0.7Q195.58 0.7 192.38-3.68 189.18-8.05 189.18-17.3L189.18-17.3Q189.18-23.3 190.95-27.33 192.73-31.35 195.78-33.3 198.83-35.25 202.68-35.25L202.68-35.25ZM236.03-13.85Q236.03-13.4 235.88-11.3L235.88-11.3 222.23-11.3Q222.43-7.2 223.65-5.58 224.88-3.95 227.13-3.95L227.13-3.95Q228.68-3.95 229.93-4.48 231.18-5 232.63-6.15L232.63-6.15 235.18-2.65Q231.68 0.75 226.78 0.75L226.78 0.75Q221.58 0.75 218.8-2.85 216.03-6.45 216.03-13L216.03-13Q216.03-19.55 218.68-23.35 221.33-27.15 226.18-27.15L226.18-27.15Q230.83-27.15 233.43-23.78 236.03-20.4 236.03-13.85L236.03-13.85ZM230.03-15.3L230.03-15.65Q230.03-19.4 229.13-21.13 228.23-22.85 226.23-22.85L226.23-22.85Q224.38-22.85 223.4-21.18 222.43-19.5 222.23-15.3L222.23-15.3 230.03-15.3ZM252.67-27.15Q255.52-27.15 257.17-25.1 258.82-23.05 258.82-19.6L258.82-19.6 258.82 0 252.67 0 252.67-18.9Q252.67-20.8 252.15-21.63 251.62-22.45 250.62-22.45L250.62-22.45Q248.52-22.45 246.47-18.5L246.47-18.5 246.47 0 240.32 0 240.32-26.45 245.67-26.45 246.12-23Q247.47-25.1 249-26.13 250.52-27.15 252.67-27.15L252.67-27.15ZM286.47 0L280.02 0 278.32-8.1 269.42-8.1 267.77 0 261.42 0 270.12-34.55 277.82-34.55 286.47 0ZM273.87-29.7L270.42-12.9 277.37-12.9 273.87-29.7ZM289.37-34.55L295.72-34.55 295.72 0 289.37 0 289.37-34.55Z" opacity="1" transform="matrix(1,0,0,1,0,0)" fill="black" class="wordmark-text-0" id="SvgjsPath1044"></path></svg></g></svg></g></svg></g></svg></g><g transform="matrix(1,0,0,1,77.34404441961875,0)"><svg viewBox="0 0 101.31191116076249 101.31191116076249" height="101.31191116076249" width="101.31191116076249"><g><svg></svg></g><g id="SvgjsG1043"><svg viewBox="0 0 101.31191116076249 101.31191116076249" height="101.31191116076249" width="101.31191116076249"><g><path d="M0 50.656c0-27.977 22.679-50.656 50.656-50.656 27.977 0 50.656 22.679 50.656 50.656 0 27.977-22.679 50.656-50.656 50.656-27.977 0-50.656-22.679-50.656-50.656zM50.656 97.487c25.864 0 46.831-20.967 46.831-46.831 0-25.864-20.967-46.831-46.831-46.831-25.864 0-46.831 20.967-46.831 46.831 0 25.864 20.967 46.831 46.831 46.831z" fill="black" stroke="transparent"></path></g><g transform="matrix(1,0,0,1,26.639602979559935,23.134771018055925)"><svg viewBox="0 0 48.03270520164262 55.04236912465064" height="55.04236912465064" width="48.03270520164262"><g><svg xmlns:inkscape="http://www.inkscape.org/namespaces/inkscape" xmlns:sodipodi="http://sodipodi.sourceforge.net/DTD/sodipodi-0.dtd" xmlns:cc="http://creativecommons.org/ns#" xmlns:svg="http://www.w3.org/2000/svg" xmlns:rdf="http://www.w3.org/1999/02/22-rdf-syntax-ns#" xmlns:dc="http://purl.org/dc/elements/1.1/" xmlns="http://www.w3.org/2000/svg" xmlns:xlink="http://www.w3.org/1999/xlink" version="1.1" x="0" y="0" viewBox="9.589000000000002 5.981999999999999 46.411 53.184" enable-background="new 0 0 64 64" xml:space="preserve" height="55.04236912465064" width="48.03270520164262" class="icon-cg-0" data-fill-palette-color="accent" id="SvgjsSvg1042"><g fill="black"><path fill="black" d="M38.902 15.585c-1.664 0-3.012 1.349-3.012 3.012 0 1.663 1.348 3.012 3.012 3.012 1.662 0 3.012-1.349 3.012-3.012C41.914 16.934 40.564 15.585 38.902 15.585zM27.021 15.585c-1.665 0-3.012 1.349-3.012 3.012 0 1.663 1.348 3.012 3.012 3.012 1.663 0 3.012-1.349 3.012-3.012C30.033 16.934 28.684 15.585 27.021 15.585zM21.081 46.271c0 1.664 1.349 3.012 3.012 3.012H41.83c1.662 0 3.012-1.348 3.012-3.012V33.088H21.081V46.271zM14.632 14.788c-0.587-0.591-0.88-1.363-0.88-2.131 0-0.771 0.293-1.544 0.88-2.131 0.591-0.587 1.36-0.88 2.131-0.88 0.772 0 1.544 0.293 2.131 0.88l-0.704 0.52c4.077-3.17 9.202-5.064 14.77-5.064 5.568 0 10.688 1.893 14.77 5.064l-0.701-0.518c0.588-0.588 1.357-0.881 2.131-0.881 0.77 0 1.543 0.293 2.129 0.881 0.586 0.591 0.879 1.363 0.879 2.131 0 0.772-0.291 1.544-0.879 2.131l0.703 0.518c-6.287 6.287-7.15 14.769-7.15 14.769H21.081c-0.5 0 0.497-7.123-7.15-14.769L14.632 14.788z"></path></g><path fill="black" d="M16.917 35.35c0 2.023-1.64 3.664-3.664 3.664l0 0c-2.024 0-3.664-1.641-3.664-3.664l0 0c0-2.023 1.64-3.664 3.664-3.664l0 0C15.276 31.686 16.917 33.326 16.917 35.35L16.917 35.35z"></path><path fill="black" d="M56 26.8c0 2.023-1.641 3.665-3.664 3.665l0 0c-2.023 0-3.664-1.642-3.664-3.665l0 0c0-2.022 1.641-3.664 3.664-3.664l0 0C54.359 23.136 56 24.777 56 26.8L56 26.8z"></path><path fill="black" d="M39.512 59.166c-2.023 0-3.664-1.641-3.664-3.664l0 0c0-2.023 1.641-3.664 3.664-3.664l0 0c2.023 0 3.664 1.641 3.664 3.664l0 0C43.176 57.525 41.535 59.166 39.512 59.166L39.512 59.166z"></path><path fill="black" d="M26.077 59.166c-2.024 0-3.664-1.641-3.664-3.664l0 0c0-2.023 1.64-3.664 3.664-3.664l0 0c2.024 0 3.664 1.641 3.664 3.664l0 0C29.741 57.525 28.101 59.166 26.077 59.166L26.077 59.166z"></path></svg></g></svg></g></svg></g></svg></g><g></g></svg></g></svg></g></svg></g><defs><mask></mask></defs></svg><rect width="512" height="320" fill="black" stroke="none" visibility="hidden"></rect></g></mask></svg><rect width="512" height="320" fill="black" stroke="none" visibility="hidden"></rect></g></mask><linearGradient x1="0" x2="1" y1="0.578" y2="0.595" id="16563470-3f2a-4290-a92e-7113f1eef3fc"><stop stop-color="#6ee2f5" offset="0"></stop><stop stop-color="#6454f0" offset="1"></stop></linearGradient><rect width="512" height="320" fill="url(#16563470-3f2a-4290-a92e-7113f1eef3fc)" mask="url(#bcdd8c3a-6739-401e-8641-958c31f71414)" data-fill-palette-color="accent"></rect><mask id="3ebc2aa1-aa5a-452d-bbd1-8130f52224ce"><g id="SvgjsG1074"><svg viewBox="0 0 512 320" height="320" width="512"><g><svg></svg></g><g><svg viewBox="0 0 512 320" height="320" width="512"><g><path d="M96 160c0-88.366 71.634-160 160-160 88.366 0 160 71.634 160 160 0 88.366-71.634 160-160 160-88.366 0-160-71.634-160-160zM256 312.526c84.238 0 152.526-68.288 152.526-152.526 0-84.238-68.288-152.526-152.526-152.526-84.238 0-152.526 68.288-152.526 152.526 0 84.238 68.288 152.526 152.526 152.526z" fill="white" fill-rule="nonzero" stroke="none" stroke-width="1" stroke-linecap="butt" stroke-linejoin="miter" stroke-miterlimit="10" stroke-dasharray="" stroke-dashoffset="0" font-family="none" font-weight="none" font-size="none" text-anchor="none" style="mix-blend-mode: normal"></path></g><g transform="matrix(1,0,0,1,130.9299637886343,80)"><svg viewBox="0 0 250.1400724227314 160" height="160" width="250.1400724227314"><g><svg viewBox="0 0 256 163.74825354163355" height="160" width="250.1400724227314"><g transform="matrix(1,0,0,1,0,121.33663953650972)"><svg viewBox="0 0 256 42.41161400512382" height="42.41161400512382" width="256"><g id="SvgjsG1073"><svg viewBox="0 0 256 42.41161400512382" height="42.41161400512382" width="256" id="SvgjsSvg1072"><g><svg viewBox="0 0 256 42.41161400512382" height="42.41161400512382" width="256"><g transform="matrix(1,0,0,1,0,0)"><svg width="256" viewBox="3 -37.65 292.72 48.5" height="42.41161400512382" data-palette-color="url(#6b0ba99e-4bbe-49a6-ade1-d434ad69135e)"></svg></g></svg></g></svg></g></svg></g><g transform="matrix(1,0,0,1,77.34404441961875,0)"><svg viewBox="0 0 101.31191116076249 101.31191116076249" height="101.31191116076249" width="101.31191116076249"><g><svg></svg></g><g id="SvgjsG1071"><svg viewBox="0 0 101.31191116076249 101.31191116076249" height="101.31191116076249" width="101.31191116076249"><g></g><g transform="matrix(1,0,0,1,26.639602979559935,23.134771018055925)"><svg viewBox="0 0 48.03270520164262 55.04236912465064" height="55.04236912465064" width="48.03270520164262"><g><svg xmlns:inkscape="http://www.inkscape.org/namespaces/inkscape" xmlns:sodipodi="http://sodipodi.sourceforge.net/DTD/sodipodi-0.dtd" xmlns:cc="http://creativecommons.org/ns#" xmlns:svg="http://www.w3.org/2000/svg" xmlns:rdf="http://www.w3.org/1999/02/22-rdf-syntax-ns#" xmlns:dc="http://purl.org/dc/elements/1.1/" xmlns="http://www.w3.org/2000/svg" xmlns:xlink="http://www.w3.org/1999/xlink" version="1.1" x="0" y="0" viewBox="9.589000000000002 5.981999999999999 46.411 53.184" enable-background="new 0 0 64 64" xml:space="preserve" height="55.04236912465064" width="48.03270520164262" class="icon-cg-0" data-fill-palette-color="accent" id="SvgjsSvg1070"></svg></g></svg></g></svg></g></svg></g><g></g></svg></g></svg></g></svg></g><defs><mask></mask></defs><mask><g id="SvgjsG1069"><svg viewBox="0 0 512 320" height="320" width="512"><g><svg></svg></g><g><svg viewBox="0 0 512 320" height="320" width="512"><g><path d="M96 160c0-88.366 71.634-160 160-160 88.366 0 160 71.634 160 160 0 88.366-71.634 160-160 160-88.366 0-160-71.634-160-160zM256 312.526c84.238 0 152.526-68.288 152.526-152.526 0-84.238-68.288-152.526-152.526-152.526-84.238 0-152.526 68.288-152.526 152.526 0 84.238 68.288 152.526 152.526 152.526z" fill="black" fill-rule="nonzero" stroke="none" stroke-width="1" stroke-linecap="butt" stroke-linejoin="miter" stroke-miterlimit="10" stroke-dasharray="" stroke-dashoffset="0" font-family="none" font-weight="none" font-size="none" text-anchor="none" style="mix-blend-mode: normal"></path></g><g transform="matrix(1,0,0,1,130.9299637886343,80)"><svg viewBox="0 0 250.1400724227314 160" height="160" width="250.1400724227314"><g><svg viewBox="0 0 256 163.74825354163355" height="160" width="250.1400724227314"><g transform="matrix(1,0,0,1,0,121.33663953650972)"><svg viewBox="0 0 256 42.41161400512382" height="42.41161400512382" width="256"><g id="SvgjsG1068"><svg viewBox="0 0 256 42.41161400512382" height="42.41161400512382" width="256" id="SvgjsSvg1067"><g><svg viewBox="0 0 256 42.41161400512382" height="42.41161400512382" width="256"><g transform="matrix(1,0,0,1,0,0)"><svg width="256" viewBox="3 -37.65 292.72 48.5" height="42.41161400512382" data-palette-color="url(#6b0ba99e-4bbe-49a6-ade1-d434ad69135e)"><path d="M3-34.55L20.15-34.55 19.5-29.8 9.35-29.8 9.35-19.9 18.2-19.9 18.2-15.2 9.35-15.2 9.35-4.8 20.15-4.8 20.15 0 3 0 3-34.55ZM31.85-27.15Q36.55-27.15 39.8-24.05L39.8-24.05 37.45-20.7Q36.05-21.7 34.8-22.2 33.55-22.7 32.25-22.7L32.25-22.7Q30.8-22.7 29.97-21.93 29.15-21.15 29.15-19.8L29.15-19.8Q29.15-18.45 30.07-17.63 31-16.8 33.8-15.7L33.8-15.7Q37.25-14.35 38.9-12.5 40.55-10.65 40.55-7.55L40.55-7.55Q40.55-3.7 37.85-1.48 35.15 0.75 31 0.75L31 0.75Q28.3 0.75 26.02-0.23 23.75-1.2 22.05-2.95L22.05-2.95 25.05-6.25Q27.85-3.8 30.75-3.8L30.75-3.8Q32.4-3.8 33.35-4.67 34.3-5.55 34.3-7.1L34.3-7.1Q34.3-8.25 33.9-8.97 33.5-9.7 32.5-10.33 31.5-10.95 29.5-11.7L29.5-11.7Q26.05-13.05 24.57-14.85 23.1-16.65 23.1-19.45L23.1-19.45Q23.1-22.8 25.47-24.98 27.85-27.15 31.85-27.15L31.85-27.15ZM56.75-27.15Q59.59-27.15 61.25-25.1 62.9-23.05 62.9-19.6L62.9-19.6 62.9 0 56.75 0 56.75-18.9Q56.75-20.8 56.22-21.63 55.7-22.45 54.7-22.45L54.7-22.45Q52.59-22.45 50.55-18.5L50.55-18.5 50.55 0 44.4 0 44.4-37 50.55-37.65 50.55-23.3Q51.8-25.25 53.27-26.2 54.75-27.15 56.75-27.15L56.75-27.15ZM77.84-27.15Q82.84-27.15 85.62-23.65 88.39-20.15 88.39-13.25L88.39-13.25Q88.39-6.65 85.59-2.95 82.79 0.75 77.84 0.75L77.84 0.75Q72.89 0.75 70.09-2.88 67.29-6.5 67.29-13.25L67.29-13.25Q67.29-19.95 70.09-23.55 72.89-27.15 77.84-27.15L77.84-27.15ZM77.84-22.5Q75.69-22.5 74.69-20.38 73.69-18.25 73.69-13.25L73.69-13.25Q73.69-8.2 74.69-6.08 75.69-3.95 77.84-3.95L77.84-3.95Q79.99-3.95 80.99-6.08 81.99-8.2 81.99-13.25L81.99-13.25Q81.99-18.3 80.99-20.4 79.99-22.5 77.84-22.5L77.84-22.5ZM105.14-27.15Q109.04-27.15 111.04-23.58 113.04-20 113.04-13.3L113.04-13.3Q113.04-6.8 110.77-3.03 108.49 0.75 104.44 0.75L104.44 0.75Q101.24 0.75 99.09-2.1L99.09-2.1 99.09 10.15 92.94 10.85 92.94-26.45 98.39-26.45 98.64-23.25Q99.94-25.25 101.54-26.2 103.14-27.15 105.14-27.15L105.14-27.15ZM102.79-3.95Q104.69-3.95 105.69-6.13 106.69-8.3 106.69-13.25L106.69-13.25Q106.69-18.45 105.84-20.5 104.99-22.55 103.19-22.55L103.19-22.55Q100.89-22.55 99.09-19.25L99.09-19.25 99.09-6.45Q100.69-3.95 102.79-3.95L102.79-3.95ZM139.09-35.25Q145.19-35.25 148.49-30.8 151.79-26.35 151.79-17.3L151.79-17.3Q151.79-8.35 148.49-3.8 145.19 0.75 139.09 0.75L139.09 0.75Q133.04 0.75 129.71-3.75 126.39-8.25 126.39-17.25L126.39-17.25Q126.39-26.15 129.71-30.7 133.04-35.25 139.09-35.25L139.09-35.25ZM139.09-30.45Q136.04-30.45 134.56-27.4 133.09-24.35 133.09-17.25L133.09-17.25Q133.09-10.1 134.59-7.13 136.09-4.15 139.09-4.15L139.09-4.15Q142.19-4.15 143.66-7.1 145.14-10.05 145.14-17.3L145.14-17.3Q145.14-24.4 143.64-27.43 142.14-30.45 139.09-30.45L139.09-30.45ZM168.73-27.15Q171.58-27.15 173.23-25.1 174.88-23.05 174.88-19.6L174.88-19.6 174.88 0 168.73 0 168.73-18.9Q168.73-20.8 168.21-21.63 167.68-22.45 166.68-22.45L166.68-22.45Q164.58-22.45 162.53-18.5L162.53-18.5 162.53 0 156.38 0 156.38-26.45 161.73-26.45 162.18-23Q163.53-25.1 165.06-26.13 166.58-27.15 168.73-27.15L168.73-27.15ZM202.68-35.25Q205.53-35.25 207.78-34.23 210.03-33.2 212.03-31.25L212.03-31.25 208.83-27.95Q207.28-29.3 205.93-29.88 204.58-30.45 202.88-30.45L202.88-30.45Q199.58-30.45 197.7-27.5 195.83-24.55 195.83-17.3L195.83-17.3Q195.83-12.2 196.5-9.33 197.18-6.45 198.5-5.3 199.83-4.15 201.98-4.15L201.98-4.15Q204.23-4.15 206.08-5.4L206.08-5.4 206.08-14.75 202.18-14.75 201.53-19.5 212.13-19.5 212.13-2.6Q209.98-1.05 207.35-0.18 204.73 0.7 202.03 0.7L202.03 0.7Q195.58 0.7 192.38-3.68 189.18-8.05 189.18-17.3L189.18-17.3Q189.18-23.3 190.95-27.33 192.73-31.35 195.78-33.3 198.83-35.25 202.68-35.25L202.68-35.25ZM236.03-13.85Q236.03-13.4 235.88-11.3L235.88-11.3 222.23-11.3Q222.43-7.2 223.65-5.58 224.88-3.95 227.13-3.95L227.13-3.95Q228.68-3.95 229.93-4.48 231.18-5 232.63-6.15L232.63-6.15 235.18-2.65Q231.68 0.75 226.78 0.75L226.78 0.75Q221.58 0.75 218.8-2.85 216.03-6.45 216.03-13L216.03-13Q216.03-19.55 218.68-23.35 221.33-27.15 226.18-27.15L226.18-27.15Q230.83-27.15 233.43-23.78 236.03-20.4 236.03-13.85L236.03-13.85ZM230.03-15.3L230.03-15.65Q230.03-19.4 229.13-21.13 228.23-22.85 226.23-22.85L226.23-22.85Q224.38-22.85 223.4-21.18 222.43-19.5 222.23-15.3L222.23-15.3 230.03-15.3ZM252.67-27.15Q255.52-27.15 257.17-25.1 258.82-23.05 258.82-19.6L258.82-19.6 258.82 0 252.67 0 252.67-18.9Q252.67-20.8 252.15-21.63 251.62-22.45 250.62-22.45L250.62-22.45Q248.52-22.45 246.47-18.5L246.47-18.5 246.47 0 240.32 0 240.32-26.45 245.67-26.45 246.12-23Q247.47-25.1 249-26.13 250.52-27.15 252.67-27.15L252.67-27.15ZM286.47 0L280.02 0 278.32-8.1 269.42-8.1 267.77 0 261.42 0 270.12-34.55 277.82-34.55 286.47 0ZM273.87-29.7L270.42-12.9 277.37-12.9 273.87-29.7ZM289.37-34.55L295.72-34.55 295.72 0 289.37 0 289.37-34.55Z" opacity="1" transform="matrix(1,0,0,1,0,0)" fill="black" class="wordmark-text-0" id="SvgjsPath1066"></path></svg></g></svg></g></svg></g></svg></g><g transform="matrix(1,0,0,1,77.34404441961875,0)"><svg viewBox="0 0 101.31191116076249 101.31191116076249" height="101.31191116076249" width="101.31191116076249"><g><svg></svg></g><g id="SvgjsG1065"><svg viewBox="0 0 101.31191116076249 101.31191116076249" height="101.31191116076249" width="101.31191116076249"><g><path d="M0 50.656c0-27.977 22.679-50.656 50.656-50.656 27.977 0 50.656 22.679 50.656 50.656 0 27.977-22.679 50.656-50.656 50.656-27.977 0-50.656-22.679-50.656-50.656zM50.656 97.487c25.864 0 46.831-20.967 46.831-46.831 0-25.864-20.967-46.831-46.831-46.831-25.864 0-46.831 20.967-46.831 46.831 0 25.864 20.967 46.831 46.831 46.831z" fill="black" stroke="transparent"></path></g><g transform="matrix(1,0,0,1,26.639602979559935,23.134771018055925)"><svg viewBox="0 0 48.03270520164262 55.04236912465064" height="55.04236912465064" width="48.03270520164262"><g><svg xmlns:inkscape="http://www.inkscape.org/namespaces/inkscape" xmlns:sodipodi="http://sodipodi.sourceforge.net/DTD/sodipodi-0.dtd" xmlns:cc="http://creativecommons.org/ns#" xmlns:svg="http://www.w3.org/2000/svg" xmlns:rdf="http://www.w3.org/1999/02/22-rdf-syntax-ns#" xmlns:dc="http://purl.org/dc/elements/1.1/" xmlns="http://www.w3.org/2000/svg" xmlns:xlink="http://www.w3.org/1999/xlink" version="1.1" x="0" y="0" viewBox="9.589000000000002 5.981999999999999 46.411 53.184" enable-background="new 0 0 64 64" xml:space="preserve" height="55.04236912465064" width="48.03270520164262" class="icon-cg-0" data-fill-palette-color="accent" id="SvgjsSvg1064"><g fill="black"><path fill="black" d="M38.902 15.585c-1.664 0-3.012 1.349-3.012 3.012 0 1.663 1.348 3.012 3.012 3.012 1.662 0 3.012-1.349 3.012-3.012C41.914 16.934 40.564 15.585 38.902 15.585zM27.021 15.585c-1.665 0-3.012 1.349-3.012 3.012 0 1.663 1.348 3.012 3.012 3.012 1.663 0 3.012-1.349 3.012-3.012C30.033 16.934 28.684 15.585 27.021 15.585zM21.081 46.271c0 1.664 1.349 3.012 3.012 3.012H41.83c1.662 0 3.012-1.348 3.012-3.012V33.088H21.081V46.271zM14.632 14.788c-0.587-0.591-0.88-1.363-0.88-2.131 0-0.771 0.293-1.544 0.88-2.131 0.591-0.587 1.36-0.88 2.131-0.88 0.772 0 1.544 0.293 2.131 0.88l-0.704 0.52c4.077-3.17 9.202-5.064 14.77-5.064 5.568 0 10.688 1.893 14.77 5.064l-0.701-0.518c0.588-0.588 1.357-0.881 2.131-0.881 0.77 0 1.543 0.293 2.129 0.881 0.586 0.591 0.879 1.363 0.879 2.131 0 0.772-0.291 1.544-0.879 2.131l0.703 0.518c-6.287 6.287-7.15 14.769-7.15 14.769H21.081c-0.5 0 0.497-7.123-7.15-14.769L14.632 14.788z"></path></g><path fill="black" d="M16.917 35.35c0 2.023-1.64 3.664-3.664 3.664l0 0c-2.024 0-3.664-1.641-3.664-3.664l0 0c0-2.023 1.64-3.664 3.664-3.664l0 0C15.276 31.686 16.917 33.326 16.917 35.35L16.917 35.35z"></path><path fill="black" d="M56 26.8c0 2.023-1.641 3.665-3.664 3.665l0 0c-2.023 0-3.664-1.642-3.664-3.665l0 0c0-2.022 1.641-3.664 3.664-3.664l0 0C54.359 23.136 56 24.777 56 26.8L56 26.8z"></path><path fill="black" d="M39.512 59.166c-2.023 0-3.664-1.641-3.664-3.664l0 0c0-2.023 1.641-3.664 3.664-3.664l0 0c2.023 0 3.664 1.641 3.664 3.664l0 0C43.176 57.525 41.535 59.166 39.512 59.166L39.512 59.166z"></path><path fill="black" d="M26.077 59.166c-2.024 0-3.664-1.641-3.664-3.664l0 0c0-2.023 1.64-3.664 3.664-3.664l0 0c2.024 0 3.664 1.641 3.664 3.664l0 0C29.741 57.525 28.101 59.166 26.077 59.166L26.077 59.166z"></path></svg></g></svg></g></svg></g></svg></g><g></g></svg></g></svg></g></svg></g><defs><mask></mask></defs></svg><rect width="512" height="320" fill="black" stroke="none" visibility="hidden"></rect></g></mask><mask><g id="SvgjsG1063"><svg viewBox="0 0 512 320" height="320" width="512"><g><svg></svg></g><g><svg viewBox="0 0 512 320" height="320" width="512"><g><path d="M96 160c0-88.366 71.634-160 160-160 88.366 0 160 71.634 160 160 0 88.366-71.634 160-160 160-88.366 0-160-71.634-160-160zM256 312.526c84.238 0 152.526-68.288 152.526-152.526 0-84.238-68.288-152.526-152.526-152.526-84.238 0-152.526 68.288-152.526 152.526 0 84.238 68.288 152.526 152.526 152.526z" fill="black" fill-rule="nonzero" stroke="none" stroke-width="1" stroke-linecap="butt" stroke-linejoin="miter" stroke-miterlimit="10" stroke-dasharray="" stroke-dashoffset="0" font-family="none" font-weight="none" font-size="none" text-anchor="none" style="mix-blend-mode: normal"></path></g><g transform="matrix(1,0,0,1,130.9299637886343,80)"><svg viewBox="0 0 250.1400724227314 160" height="160" width="250.1400724227314"><g><svg viewBox="0 0 256 163.74825354163355" height="160" width="250.1400724227314"><g transform="matrix(1,0,0,1,0,121.33663953650972)"><svg viewBox="0 0 256 42.41161400512382" height="42.41161400512382" width="256"><g id="SvgjsG1062"><svg viewBox="0 0 256 42.41161400512382" height="42.41161400512382" width="256" id="SvgjsSvg1061"><g><svg viewBox="0 0 256 42.41161400512382" height="42.41161400512382" width="256"><g transform="matrix(1,0,0,1,0,0)"><svg width="256" viewBox="3 -37.65 292.72 48.5" height="42.41161400512382" data-palette-color="url(#6b0ba99e-4bbe-49a6-ade1-d434ad69135e)"></svg></g></svg></g></svg></g></svg></g><g transform="matrix(1,0,0,1,77.34404441961875,0)"><svg viewBox="0 0 101.31191116076249 101.31191116076249" height="101.31191116076249" width="101.31191116076249"><g><svg></svg></g><g id="SvgjsG1060"><svg viewBox="0 0 101.31191116076249 101.31191116076249" height="101.31191116076249" width="101.31191116076249"><g><path d="M0 50.656c0-27.977 22.679-50.656 50.656-50.656 27.977 0 50.656 22.679 50.656 50.656 0 27.977-22.679 50.656-50.656 50.656-27.977 0-50.656-22.679-50.656-50.656zM50.656 97.487c25.864 0 46.831-20.967 46.831-46.831 0-25.864-20.967-46.831-46.831-46.831-25.864 0-46.831 20.967-46.831 46.831 0 25.864 20.967 46.831 46.831 46.831z" fill="black" stroke="transparent"></path></g><g transform="matrix(1,0,0,1,26.639602979559935,23.134771018055925)"><svg viewBox="0 0 48.03270520164262 55.04236912465064" height="55.04236912465064" width="48.03270520164262"><g><svg xmlns:inkscape="http://www.inkscape.org/namespaces/inkscape" xmlns:sodipodi="http://sodipodi.sourceforge.net/DTD/sodipodi-0.dtd" xmlns:cc="http://creativecommons.org/ns#" xmlns:svg="http://www.w3.org/2000/svg" xmlns:rdf="http://www.w3.org/1999/02/22-rdf-syntax-ns#" xmlns:dc="http://purl.org/dc/elements/1.1/" xmlns="http://www.w3.org/2000/svg" xmlns:xlink="http://www.w3.org/1999/xlink" version="1.1" x="0" y="0" viewBox="9.589000000000002 5.981999999999999 46.411 53.184" enable-background="new 0 0 64 64" xml:space="preserve" height="55.04236912465064" width="48.03270520164262" class="icon-cg-0" data-fill-palette-color="accent" id="SvgjsSvg1059"><g fill="black"><path fill="black" d="M38.902 15.585c-1.664 0-3.012 1.349-3.012 3.012 0 1.663 1.348 3.012 3.012 3.012 1.662 0 3.012-1.349 3.012-3.012C41.914 16.934 40.564 15.585 38.902 15.585zM27.021 15.585c-1.665 0-3.012 1.349-3.012 3.012 0 1.663 1.348 3.012 3.012 3.012 1.663 0 3.012-1.349 3.012-3.012C30.033 16.934 28.684 15.585 27.021 15.585zM21.081 46.271c0 1.664 1.349 3.012 3.012 3.012H41.83c1.662 0 3.012-1.348 3.012-3.012V33.088H21.081V46.271zM14.632 14.788c-0.587-0.591-0.88-1.363-0.88-2.131 0-0.771 0.293-1.544 0.88-2.131 0.591-0.587 1.36-0.88 2.131-0.88 0.772 0 1.544 0.293 2.131 0.88l-0.704 0.52c4.077-3.17 9.202-5.064 14.77-5.064 5.568 0 10.688 1.893 14.77 5.064l-0.701-0.518c0.588-0.588 1.357-0.881 2.131-0.881 0.77 0 1.543 0.293 2.129 0.881 0.586 0.591 0.879 1.363 0.879 2.131 0 0.772-0.291 1.544-0.879 2.131l0.703 0.518c-6.287 6.287-7.15 14.769-7.15 14.769H21.081c-0.5 0 0.497-7.123-7.15-14.769L14.632 14.788z"></path></g><path fill="black" d="M16.917 35.35c0 2.023-1.64 3.664-3.664 3.664l0 0c-2.024 0-3.664-1.641-3.664-3.664l0 0c0-2.023 1.64-3.664 3.664-3.664l0 0C15.276 31.686 16.917 33.326 16.917 35.35L16.917 35.35z"></path><path fill="black" d="M56 26.8c0 2.023-1.641 3.665-3.664 3.665l0 0c-2.023 0-3.664-1.642-3.664-3.665l0 0c0-2.022 1.641-3.664 3.664-3.664l0 0C54.359 23.136 56 24.777 56 26.8L56 26.8z"></path><path fill="black" d="M39.512 59.166c-2.023 0-3.664-1.641-3.664-3.664l0 0c0-2.023 1.641-3.664 3.664-3.664l0 0c2.023 0 3.664 1.641 3.664 3.664l0 0C43.176 57.525 41.535 59.166 39.512 59.166L39.512 59.166z"></path><path fill="black" d="M26.077 59.166c-2.024 0-3.664-1.641-3.664-3.664l0 0c0-2.023 1.64-3.664 3.664-3.664l0 0c2.024 0 3.664 1.641 3.664 3.664l0 0C29.741 57.525 28.101 59.166 26.077 59.166L26.077 59.166z"></path></svg></g></svg></g></svg></g></svg></g><g></g></svg></g></svg></g></svg></g><defs><mask></mask></defs><mask><g id="SvgjsG1058"><svg viewBox="0 0 512 320" height="320" width="512"><g><svg></svg></g><g><svg viewBox="0 0 512 320" height="320" width="512"><g><path d="M96 160c0-88.366 71.634-160 160-160 88.366 0 160 71.634 160 160 0 88.366-71.634 160-160 160-88.366 0-160-71.634-160-160zM256 312.526c84.238 0 152.526-68.288 152.526-152.526 0-84.238-68.288-152.526-152.526-152.526-84.238 0-152.526 68.288-152.526 152.526 0 84.238 68.288 152.526 152.526 152.526z" fill="black" fill-rule="nonzero" stroke="none" stroke-width="1" stroke-linecap="butt" stroke-linejoin="miter" stroke-miterlimit="10" stroke-dasharray="" stroke-dashoffset="0" font-family="none" font-weight="none" font-size="none" text-anchor="none" style="mix-blend-mode: normal"></path></g><g transform="matrix(1,0,0,1,130.9299637886343,80)"><svg viewBox="0 0 250.1400724227314 160" height="160" width="250.1400724227314"><g><svg viewBox="0 0 256 163.74825354163355" height="160" width="250.1400724227314"><g transform="matrix(1,0,0,1,0,121.33663953650972)"><svg viewBox="0 0 256 42.41161400512382" height="42.41161400512382" width="256"><g id="SvgjsG1057"><svg viewBox="0 0 256 42.41161400512382" height="42.41161400512382" width="256" id="SvgjsSvg1056"><g><svg viewBox="0 0 256 42.41161400512382" height="42.41161400512382" width="256"><g transform="matrix(1,0,0,1,0,0)"><svg width="256" viewBox="3 -37.65 292.72 48.5" height="42.41161400512382" data-palette-color="url(#6b0ba99e-4bbe-49a6-ade1-d434ad69135e)"><path d="M3-34.55L20.15-34.55 19.5-29.8 9.35-29.8 9.35-19.9 18.2-19.9 18.2-15.2 9.35-15.2 9.35-4.8 20.15-4.8 20.15 0 3 0 3-34.55ZM31.85-27.15Q36.55-27.15 39.8-24.05L39.8-24.05 37.45-20.7Q36.05-21.7 34.8-22.2 33.55-22.7 32.25-22.7L32.25-22.7Q30.8-22.7 29.97-21.93 29.15-21.15 29.15-19.8L29.15-19.8Q29.15-18.45 30.07-17.63 31-16.8 33.8-15.7L33.8-15.7Q37.25-14.35 38.9-12.5 40.55-10.65 40.55-7.55L40.55-7.55Q40.55-3.7 37.85-1.48 35.15 0.75 31 0.75L31 0.75Q28.3 0.75 26.02-0.23 23.75-1.2 22.05-2.95L22.05-2.95 25.05-6.25Q27.85-3.8 30.75-3.8L30.75-3.8Q32.4-3.8 33.35-4.67 34.3-5.55 34.3-7.1L34.3-7.1Q34.3-8.25 33.9-8.97 33.5-9.7 32.5-10.33 31.5-10.95 29.5-11.7L29.5-11.7Q26.05-13.05 24.57-14.85 23.1-16.65 23.1-19.45L23.1-19.45Q23.1-22.8 25.47-24.98 27.85-27.15 31.85-27.15L31.85-27.15ZM56.75-27.15Q59.59-27.15 61.25-25.1 62.9-23.05 62.9-19.6L62.9-19.6 62.9 0 56.75 0 56.75-18.9Q56.75-20.8 56.22-21.63 55.7-22.45 54.7-22.45L54.7-22.45Q52.59-22.45 50.55-18.5L50.55-18.5 50.55 0 44.4 0 44.4-37 50.55-37.65 50.55-23.3Q51.8-25.25 53.27-26.2 54.75-27.15 56.75-27.15L56.75-27.15ZM77.84-27.15Q82.84-27.15 85.62-23.65 88.39-20.15 88.39-13.25L88.39-13.25Q88.39-6.65 85.59-2.95 82.79 0.75 77.84 0.75L77.84 0.75Q72.89 0.75 70.09-2.88 67.29-6.5 67.29-13.25L67.29-13.25Q67.29-19.95 70.09-23.55 72.89-27.15 77.84-27.15L77.84-27.15ZM77.84-22.5Q75.69-22.5 74.69-20.38 73.69-18.25 73.69-13.25L73.69-13.25Q73.69-8.2 74.69-6.08 75.69-3.95 77.84-3.95L77.84-3.95Q79.99-3.95 80.99-6.08 81.99-8.2 81.99-13.25L81.99-13.25Q81.99-18.3 80.99-20.4 79.99-22.5 77.84-22.5L77.84-22.5ZM105.14-27.15Q109.04-27.15 111.04-23.58 113.04-20 113.04-13.3L113.04-13.3Q113.04-6.8 110.77-3.03 108.49 0.75 104.44 0.75L104.44 0.75Q101.24 0.75 99.09-2.1L99.09-2.1 99.09 10.15 92.94 10.85 92.94-26.45 98.39-26.45 98.64-23.25Q99.94-25.25 101.54-26.2 103.14-27.15 105.14-27.15L105.14-27.15ZM102.79-3.95Q104.69-3.95 105.69-6.13 106.69-8.3 106.69-13.25L106.69-13.25Q106.69-18.45 105.84-20.5 104.99-22.55 103.19-22.55L103.19-22.55Q100.89-22.55 99.09-19.25L99.09-19.25 99.09-6.45Q100.69-3.95 102.79-3.95L102.79-3.95ZM139.09-35.25Q145.19-35.25 148.49-30.8 151.79-26.35 151.79-17.3L151.79-17.3Q151.79-8.35 148.49-3.8 145.19 0.75 139.09 0.75L139.09 0.75Q133.04 0.75 129.71-3.75 126.39-8.25 126.39-17.25L126.39-17.25Q126.39-26.15 129.71-30.7 133.04-35.25 139.09-35.25L139.09-35.25ZM139.09-30.45Q136.04-30.45 134.56-27.4 133.09-24.35 133.09-17.25L133.09-17.25Q133.09-10.1 134.59-7.13 136.09-4.15 139.09-4.15L139.09-4.15Q142.19-4.15 143.66-7.1 145.14-10.05 145.14-17.3L145.14-17.3Q145.14-24.4 143.64-27.43 142.14-30.45 139.09-30.45L139.09-30.45ZM168.73-27.15Q171.58-27.15 173.23-25.1 174.88-23.05 174.88-19.6L174.88-19.6 174.88 0 168.73 0 168.73-18.9Q168.73-20.8 168.21-21.63 167.68-22.45 166.68-22.45L166.68-22.45Q164.58-22.45 162.53-18.5L162.53-18.5 162.53 0 156.38 0 156.38-26.45 161.73-26.45 162.18-23Q163.53-25.1 165.06-26.13 166.58-27.15 168.73-27.15L168.73-27.15ZM202.68-35.25Q205.53-35.25 207.78-34.23 210.03-33.2 212.03-31.25L212.03-31.25 208.83-27.95Q207.28-29.3 205.93-29.88 204.58-30.45 202.88-30.45L202.88-30.45Q199.58-30.45 197.7-27.5 195.83-24.55 195.83-17.3L195.83-17.3Q195.83-12.2 196.5-9.33 197.18-6.45 198.5-5.3 199.83-4.15 201.98-4.15L201.98-4.15Q204.23-4.15 206.08-5.4L206.08-5.4 206.08-14.75 202.18-14.75 201.53-19.5 212.13-19.5 212.13-2.6Q209.98-1.05 207.35-0.18 204.73 0.7 202.03 0.7L202.03 0.7Q195.58 0.7 192.38-3.68 189.18-8.05 189.18-17.3L189.18-17.3Q189.18-23.3 190.95-27.33 192.73-31.35 195.78-33.3 198.83-35.25 202.68-35.25L202.68-35.25ZM236.03-13.85Q236.03-13.4 235.88-11.3L235.88-11.3 222.23-11.3Q222.43-7.2 223.65-5.58 224.88-3.95 227.13-3.95L227.13-3.95Q228.68-3.95 229.93-4.48 231.18-5 232.63-6.15L232.63-6.15 235.18-2.65Q231.68 0.75 226.78 0.75L226.78 0.75Q221.58 0.75 218.8-2.85 216.03-6.45 216.03-13L216.03-13Q216.03-19.55 218.68-23.35 221.33-27.15 226.18-27.15L226.18-27.15Q230.83-27.15 233.43-23.78 236.03-20.4 236.03-13.85L236.03-13.85ZM230.03-15.3L230.03-15.65Q230.03-19.4 229.13-21.13 228.23-22.85 226.23-22.85L226.23-22.85Q224.38-22.85 223.4-21.18 222.43-19.5 222.23-15.3L222.23-15.3 230.03-15.3ZM252.67-27.15Q255.52-27.15 257.17-25.1 258.82-23.05 258.82-19.6L258.82-19.6 258.82 0 252.67 0 252.67-18.9Q252.67-20.8 252.15-21.63 251.62-22.45 250.62-22.45L250.62-22.45Q248.52-22.45 246.47-18.5L246.47-18.5 246.47 0 240.32 0 240.32-26.45 245.67-26.45 246.12-23Q247.47-25.1 249-26.13 250.52-27.15 252.67-27.15L252.67-27.15ZM286.47 0L280.02 0 278.32-8.1 269.42-8.1 267.77 0 261.42 0 270.12-34.55 277.82-34.55 286.47 0ZM273.87-29.7L270.42-12.9 277.37-12.9 273.87-29.7ZM289.37-34.55L295.72-34.55 295.72 0 289.37 0 289.37-34.55Z" opacity="1" transform="matrix(1,0,0,1,0,0)" fill="black" class="wordmark-text-0" id="SvgjsPath1055"></path></svg></g></svg></g></svg></g></svg></g><g transform="matrix(1,0,0,1,77.34404441961875,0)"><svg viewBox="0 0 101.31191116076249 101.31191116076249" height="101.31191116076249" width="101.31191116076249"><g><svg></svg></g><g id="SvgjsG1054"><svg viewBox="0 0 101.31191116076249 101.31191116076249" height="101.31191116076249" width="101.31191116076249"><g><path d="M0 50.656c0-27.977 22.679-50.656 50.656-50.656 27.977 0 50.656 22.679 50.656 50.656 0 27.977-22.679 50.656-50.656 50.656-27.977 0-50.656-22.679-50.656-50.656zM50.656 97.487c25.864 0 46.831-20.967 46.831-46.831 0-25.864-20.967-46.831-46.831-46.831-25.864 0-46.831 20.967-46.831 46.831 0 25.864 20.967 46.831 46.831 46.831z" fill="black" stroke="transparent"></path></g><g transform="matrix(1,0,0,1,26.639602979559935,23.134771018055925)"><svg viewBox="0 0 48.03270520164262 55.04236912465064" height="55.04236912465064" width="48.03270520164262"><g><svg xmlns:inkscape="http://www.inkscape.org/namespaces/inkscape" xmlns:sodipodi="http://sodipodi.sourceforge.net/DTD/sodipodi-0.dtd" xmlns:cc="http://creativecommons.org/ns#" xmlns:svg="http://www.w3.org/2000/svg" xmlns:rdf="http://www.w3.org/1999/02/22-rdf-syntax-ns#" xmlns:dc="http://purl.org/dc/elements/1.1/" xmlns="http://www.w3.org/2000/svg" xmlns:xlink="http://www.w3.org/1999/xlink" version="1.1" x="0" y="0" viewBox="9.589000000000002 5.981999999999999 46.411 53.184" enable-background="new 0 0 64 64" xml:space="preserve" height="55.04236912465064" width="48.03270520164262" class="icon-cg-0" data-fill-palette-color="accent" id="SvgjsSvg1053"><g fill="black"><path fill="black" d="M38.902 15.585c-1.664 0-3.012 1.349-3.012 3.012 0 1.663 1.348 3.012 3.012 3.012 1.662 0 3.012-1.349 3.012-3.012C41.914 16.934 40.564 15.585 38.902 15.585zM27.021 15.585c-1.665 0-3.012 1.349-3.012 3.012 0 1.663 1.348 3.012 3.012 3.012 1.663 0 3.012-1.349 3.012-3.012C30.033 16.934 28.684 15.585 27.021 15.585zM21.081 46.271c0 1.664 1.349 3.012 3.012 3.012H41.83c1.662 0 3.012-1.348 3.012-3.012V33.088H21.081V46.271zM14.632 14.788c-0.587-0.591-0.88-1.363-0.88-2.131 0-0.771 0.293-1.544 0.88-2.131 0.591-0.587 1.36-0.88 2.131-0.88 0.772 0 1.544 0.293 2.131 0.88l-0.704 0.52c4.077-3.17 9.202-5.064 14.77-5.064 5.568 0 10.688 1.893 14.77 5.064l-0.701-0.518c0.588-0.588 1.357-0.881 2.131-0.881 0.77 0 1.543 0.293 2.129 0.881 0.586 0.591 0.879 1.363 0.879 2.131 0 0.772-0.291 1.544-0.879 2.131l0.703 0.518c-6.287 6.287-7.15 14.769-7.15 14.769H21.081c-0.5 0 0.497-7.123-7.15-14.769L14.632 14.788z"></path></g><path fill="black" d="M16.917 35.35c0 2.023-1.64 3.664-3.664 3.664l0 0c-2.024 0-3.664-1.641-3.664-3.664l0 0c0-2.023 1.64-3.664 3.664-3.664l0 0C15.276 31.686 16.917 33.326 16.917 35.35L16.917 35.35z"></path><path fill="black" d="M56 26.8c0 2.023-1.641 3.665-3.664 3.665l0 0c-2.023 0-3.664-1.642-3.664-3.665l0 0c0-2.022 1.641-3.664 3.664-3.664l0 0C54.359 23.136 56 24.777 56 26.8L56 26.8z"></path><path fill="black" d="M39.512 59.166c-2.023 0-3.664-1.641-3.664-3.664l0 0c0-2.023 1.641-3.664 3.664-3.664l0 0c2.023 0 3.664 1.641 3.664 3.664l0 0C43.176 57.525 41.535 59.166 39.512 59.166L39.512 59.166z"></path><path fill="black" d="M26.077 59.166c-2.024 0-3.664-1.641-3.664-3.664l0 0c0-2.023 1.64-3.664 3.664-3.664l0 0c2.024 0 3.664 1.641 3.664 3.664l0 0C29.741 57.525 28.101 59.166 26.077 59.166L26.077 59.166z"></path></svg></g></svg></g></svg></g></svg></g><g></g></svg></g></svg></g></svg></g><defs><mask></mask></defs></svg><rect width="512" height="320" fill="black" stroke="none" visibility="hidden"></rect></g></mask></svg><rect width="512" height="320" fill="black" stroke="none" visibility="hidden"></rect></g></mask></svg><rect width="512" height="320" fill="black" stroke="none" visibility="hidden"></rect></g></mask><linearGradient x1="0" x2="1" y1="0.578" y2="0.595" id="9314c1eb-d60d-47b0-8bb7-5c0850753ea9"><stop stop-color="#6ee2f5" offset="0"></stop><stop stop-color="#6454f0" offset="1"></stop></linearGradient></svg><rect width="512" height="320" fill="none" stroke="none" visibility="hidden"></rect></g></svg></g></svg>